<svg viewBox="0 0 12 12" width="60px" height="60px" xmlns="http://www.w3.org/2000/svg"><path fill-rule="evenodd" d="M 4,0 8,0 8,2 9,2 9,1 12,1 12,9 11,9 11,10 9,10 9,12 3,12 3,10 1,10 1,9 0,9 0,1 3,1 3,2 4,2z M 7,7 7,9 5,9 5,7z" fill="#3FA6DA"/><path fill-rule="evenodd" d="M 5,1 7,1 7,3 5,3z" fill="#ffffff"/><path fill-rule="evenodd" d="M 1,2 2,2 2,3 1,3z" fill="#ffffff"/><path fill-rule="evenodd" d="M 10,2 11,2 11,3 10,3z" fill="#ffffff"/><path fill-rule="evenodd" d="M 2,3 3,3 3,4 2,4z" fill="#ffffff"/><path fill-rule="evenodd" d="M 4,3 5,3 5,4 7,4 7,3 8,3 8,5 7,5 7,6 5,6 5,5 4,5z" fill="#ffffff"/><path fill-rule="evenodd" d="M 9,3 10,3 10,4 9,4z" fill="#ffffff"/><path fill-rule="evenodd" d="M 1,4 2,4 2,6 1,6z" fill="#ffffff"/><path fill-rule="evenodd" d="M 10,4 11,4 11,6 10,6z" fill="#ffffff"/><path fill-rule="evenodd" d="M 3,6 4,6 4,7 3,7z" fill="#ffffff"/><path fill-rule="evenodd" d="M 8,6 9,6 9,7 8,7z" fill="#ffffff"/><path fill-rule="evenodd" d="M 1,7 3,7 3,8 4,8 4,9 2,9 2,8 1,8z" fill="#ffffff"/><path fill-rule="evenodd" d="M 9,7 11,7 11,8 10,8 10,9 8,9 8,8 9,8z" fill="#ffffff"/><path fill-rule="evenodd" d="M 4,10 8,10 8,11 4,11z" fill="#ffffff"/></svg>